<?xml version="1.0" encoding="utf-8"?>
<!-- Generator: Adobe Illustrator 22.1.0, SVG Export Plug-In . SVG Version: 6.00 Build 0)  -->
<svg version="1.1" id="Layer_1" xmlns="http://www.w3.org/2000/svg" xmlns:xlink="http://www.w3.org/1999/xlink" x="0px" y="0px"
	 viewBox="0 0 538 304" style="enable-background:new 0 0 538 304;" xml:space="preserve">
<style type="text/css">
	.st0{fill:#2A2A2A;}
</style>
<g>
	<path class="st0" d="M457,153h-69c-21.6,0-22.6-4.8-22.6-15.8c0-10.5,2.3-15.5,23-15.5H457V153z M424.8,67.3h-70.2v17.6h69.2
		c23.8,0,31.1,7.5,32.8,19.2h-71c-26.4,0-38.1,10.2-38.1,33.1c0,23.1,11.9,33.4,38.6,33.4h88.1v-59C474.1,81.8,458,67.3,424.8,67.3"
		/>
	<path class="st0" d="M252,84.4h34.6c20.4,0,22.6,4.8,22.6,15.9c0,10.5-2.2,15.1-22.9,15.1h-68.6C218.1,93.6,223.9,84.4,252,84.4
		 M218.6,133H289c26.4,0,38.1-10.1,38.1-32.7c0-23.1-11.5-33-38.6-33h-37.7c-44.5,0-50.6,24.8-50.6,51.6c0,26.8,6.1,51.7,50.6,51.7
		h72.1v-17.5H252C227.7,153.1,220.8,146.6,218.6,133"/>
	<polygon class="st0" points="136.2,120.1 191.1,67.3 165.9,67.3 82,147.5 82,67.3 64.6,67.3 64.6,170.6 83,170.6 123.3,132
		169.1,170.6 196.6,170.6 	"/>
</g>
<g>
	<path class="st0" d="M76.2,188.8l12.6,35.4h0.1v-35.4h9.6v51.7H86.6l-12.8-36.2h-0.1v36.2h-9.6v-51.7H76.2z"/>
	<path class="st0" d="M153.3,188.8v8.5h-18.5v12.2h17.4v8.5h-17.4V232h19.2v8.5h-29.6v-51.7H153.3z"/>
	<path class="st0" d="M180.3,240.6V232h11.3v-43.2H202V232h11.3v8.5H180.3z"/>
	<path class="st0" d="M239.6,188.8h10l5.7,38.3h0.1l6.1-38.3h10l6.1,38.3h0.1l5.7-38.3h10l-9.4,51.7h-11.7l-5.8-37.5h-0.1l-5.8,37.5
		H249L239.6,188.8z"/>
	<path class="st0" d="M332.6,187.8c15.7,0,17.6,11.2,17.6,26.9s-2,26.9-17.6,26.9c-15.6,0-17.6-11.2-17.6-26.9
		S316.9,187.8,332.6,187.8z M332.6,233.9c6.2,0,7.2-5.3,7.2-19.2c0-13.8-1-19.2-7.2-19.2s-7.2,5.4-7.2,19.2
		C325.4,228.6,326.4,233.9,332.6,233.9z"/>
	<path class="st0" d="M376.5,188.8h19.3c8.5,0,13.8,4.5,13.8,13.3c0,6.9-2.8,11.5-8.6,12.8v0.1c7.1,0.9,8.2,4.9,8.3,15.8
		c0.1,5.4,0.4,8.3,2.3,9.3v0.4h-11.3c-1-1.4-1.2-3.4-1.3-5.4l-0.3-9.9c-0.1-4.1-2-6.5-6.2-6.5h-5.6v21.9h-10.4V188.8z M386.9,211.4
		h4.3c5,0,7.8-2.2,7.8-7.8c0-4.8-2.5-7.2-7.2-7.2h-4.9V211.4z"/>
	<path class="st0" d="M448.1,188.8v20.7h0.1l13.2-20.7h11.3L458.6,211l15.6,29.6h-11.7l-10.7-21.2l-3.8,5.9v15.4h-10.4v-51.7H448.1z
		"/>
</g>
</svg>
